<mxfile host="app.diagrams.net" modified="2021-12-21T07:48:53.737Z" agent="5.0 (X11)" etag="tJxsZBujMwiiULC4p1-e" version="16.0.0" type="github">
  <diagram id="CZEIz76c1spVKJiSfFrZ" name="Page-1">
    <mxGraphModel dx="2011" dy="1167" grid="1" gridSize="10" guides="1" tooltips="1" connect="1" arrows="1" fold="1" page="1" pageScale="1" pageWidth="827" pageHeight="1169" math="0" shadow="0">
      <root>
        <mxCell id="0" />
        <mxCell id="1" parent="0" />
        <mxCell id="UsVPU6x3wFJ9-LT1vOVj-1" value="" style="shape=image;verticalLabelPosition=bottom;verticalAlign=top;imageAspect=0;aspect=fixed;image=data:image/png,iVBORw0KGgoAAAANSUhEUgAAAGQAAABkCAYAAABw4pVUAAAE+ElEQVR4nO2dv2vbaBjHvzE1h4672tUddIjx5SCieKhRpiwKlsekHkKztfkHkiWXzTeZTvFNTTykQ9fg8cjSZIwMzqClEc5wBGcIwR4Kh89uB3N4yA2ycrpiOdbv96TnAyJg+5Ue3g96n/d98iLN3d3dwQFpAOsACgDE8UEA2vhoADgG0Ld7gjmbQmQAO9BlEA9zDOAAgDJrg1mFyAAq47+EfRQAbzCDmFmEvAXwi9uICADAPoDdaT+YJiQN4AyUH7xGA1CERX5JWDRKg2T4hQi9b9OTvpwkJA2S4TciLKRMGrIuQDKCQgOwZP7g6zvkLUhGkIjQ+/we8x0iQ7+NiOApYjwlNt8hlVBCIQBT3xtCZNCiL0zk8XEvZCesSIh7dgA9h6QB/BVuLMSYJwlQoZAl1hPQS+gEGxQSoHUHS4hzdw7/Q0X4g1VxkQgJEsIYJIQxSAhjkBDGICGMQUIYg4QwBglhDBLCGCSEMSIl5PX7j2pd7TbDjsMNkRIyGI6+2T5qSSu/nV812z0t7HicECkhBpedz89KNVV8/f6jetsbdsKOxw6RFGLwofVpOV9RMtWTtjIYjgZhxzMLkRZiUD29lleq51/+D/klFkIA4LY3zGwftaRSTdVYzi+xEWLQbPfEUk0Vt49aTRaHsdgJMairXSlfaaB60lbCjsVMbIUAwGA4SlVPr+V8Rel8aH1Sw44H0DfK2drkUFe7zbra+c6vgNxw2fny82A4SjltLwm8tvcyxz3PPH7mZVx2sC2ketJWqqfXsk/xMMFWcaFRXl0UU1zSsVynxHrIsuLd2U0hX2ng3dlNI+hrkxALBsNR6tff/yjkK0onyGkyCXmA294wU6qpYqmmakGUYUjIjDTbPTGIMgwJsYk+TW7ArzIMCXHAYDhK+VXmJyEuMMr820etplf5hYR4QF3tSivV8++9yC8kxCOMMozbMj8J8Rhzmf+y8/nKbnsSwhiPwg4gamR5rlNeE25eLc9LTtqTEI9IccnBlvzTxVZxYSnFJR3JAEiIJ7zIP1X3NnLzWZ6T3Z6LhLjgeebx1d7L3FAS+GWvzklCHJDikoO9jdyl0zwxDRJik/LqouI2T0yDhMyIJPDa4Wb+Ry/yxDRIyANkea5zuJn/UxJ4MYjrkRALUlxyUF5d1LaKCwUAmaCuS0ImYNrkEPiDeWwLyf7w7SNJ4DUfYnGNh9uAQntCUqQePjPetyvabZfluc7eRq77Iv/Us/WEU2I9ZBnljvKaICPAPDGN2Ap5tTzfLK8JC35PY+0SOyGSwGvlVQGSwPuysHNLbIS4LYsHRSyE+F3u8JJIC/GyLB4UkRTiR1k8KCIlJMUl/z7czDdZzxPTiNTCMArQrhPGICGMQUIYg4QwBglhDBLCGCSEMUgIY5AQxiAhjEFCGCMB/X2sBBtoJIQttASAwB+wQljSoBdLssWTBIA+gONw4yCgO+gbs6yDEAMhdA6Af6e9yvggwkHBhPepvwkjEgKAqe/NQhQA+0FHQmAfptFpbsIehwvQ+3GDQgOwZP5gUumkCFosBoEGva//wyQhfZAUv9Gg93H/6y+siot9kBS/0GAhA5he7e1DH9/2PQ4ozuxD79O+1Q9mKb/vQjeqeBFRTFGg9+HuQz+cNMuahgxgB8C6g6DiyDH0FbgyawO7QgzS0KUUoE+RRScniSDa+GhgXJuye4J/AF4qpISvP2x9AAAAAElFTkSuQmCC" parent="1" vertex="1">
          <mxGeometry x="60" y="50" width="100" height="100" as="geometry" />
        </mxCell>
        <mxCell id="UsVPU6x3wFJ9-LT1vOVj-5" value="" style="shape=image;verticalLabelPosition=bottom;verticalAlign=top;imageAspect=0;aspect=fixed;image=data:image/png,iVBORw0KGgoAAAANSUhEUgAAAGQAAABkCAYAAABw4pVUAAANGUlEQVR4nO2dMWzbVhrHv/gs5FjEpo9uoxQSFAWx4GSgqmQIC0SGZeAWRx6K3iZ79SAD51yXRpmCTFFvaeoDrMGrra1BBqteClhCaKDM4DDikAhyUEWg0CpteHpWWjaQi9wg0UfLFMUnkaLV6gcIpslH8hP/5Hvv+973qFPv3r2DDhgDgE8AYBoAAo3PAAC+8ckAwEMAqOAe4BSmICEAuAl1MQa05yEAfAUAaaM7GBUkBAB3Gn8H4JMGgLtgQBgjgnwJAP/q1qIBAABwHwA+0yugJ8gYAGzDoH0wGx4AZqBF+zLUYqcxGIhhFQGoX9sxrY1agozBQAyrCUALUbSqrCcwEKNX8ABwRb2i+Qn5EgZi9JIA1K/5IeonJAT1x2hA75mBRpdY/YTcscWUAQCqa68IEoKB02cnocbnUJCbdlliBkmuxCa5Emu3HV1yE6DehowBwH/ttaVzkFxD5z//lgQAePnvvyOScJB229QFfxuCPg8UprKvBK3lPuWTIaiH0PsWobT/u9ZynzI9BH3udwjiPqm13KcE+l6QPxiBVsHFATbR94Ig+YCw2wYz6XtBBHF/Ullm81LARlNM4UQLwuYlXm+7IO7njKxrPiaSa6hL0yxj2G4DWjG/tsulsmUGACDsd3LRkPd00EcF1GXiW3uV5v3iW3uVjcWrR9axeYlPpAtvG8cLhP1ObmPxKmOd9Z1zYgWhXSNyKlsGAIBUtsyksmUI+ig+wrjfkMSwI8mVQBFMTSpbZubXdrloyHsaybW3iXThdHNVFpygfuvNt8Dn1LsOE7N6wdwKx5vdLgR9FL+5zJh6TDM50W3IxuLVC2G/kzPreEEfxW8sXr1g1vGswFZBltaz7PnPv0VFSRa1tpOEg9xYvMrEZifS3Z4rNjuR3lxmAq2Cj40gJVpaz9oaNbZNECTXUJIrBZFcIxPpwgu9srEbvtCjW9dzQR/F454n6KP4R7eu52I3fCG9contwhMk18iGTbb1wmwTRBCr3yvLqafli+3K0+7Ryc1lJhBhXIbv4AjjYjeXmQDtHp1sVzYlvPpQy7ZeY5sgbP51RVkuSrLb6H6rC/6gkXYl6KP41QV/0OhxjzqY/7et15gmCJuX+HaOXLv9jZZdXaAvkYSjZbVCEg60uuB/3+jx2jmTenT7vZsxxQ9h8xI/t8IFlP9bOXJq0G8Hpzo9H0k4yGjofDq+tRfS2h4NnX/ioQjNbZq2yAcyjm3NjiYAwOYyw+t9X6OY8oTQ7pELtHv08C5LZcvM3AoXaPgRfHN5JNeQkXZDj+iM90on24yQelq+qNWwN248fm6FC6idUto9mqPdI6Z0p015Qhrd0+r82m6uOdg3l+cOPWwPRZxBcu1tfGtvrCjJRxraoiS/wT1n2O/kmr31sN/JkYQDKyyC5NrbJlvccyuPc7HZieck4ThdlOQ3SU48o+Wk0u7R3Oo8DWaN5ZsWOvFQhHtz+RqaX9s95l2zeSnA5iXd/dn8a4gwLqxzhv3OmhJeUa/DOggAsHvSsVCKIO5Pzq/t6u6nOJpmJlaY2ssiCQe5ucwE7n16OaPX6GqRyr6icfv/tGvkAyPr2pH8rhTAKU8SDnTv08sZPUezUyzp9kZnvNOPYterOGEPJNfIxHbhCc55tPwLIz6HmsR2IYPkmuGLGvY7uUex69XojNeS5BDL/BAPRbg3Fq8yOI5cIv3ySqswSivUTyLuU1mUZDG+tRcwWj7CuNiNxauMhyIM+024WO4Yri74gx6KMHSRkVwj59d2f8E5Pu0e+V5r2Qjza7u/GH06PBQh4jiandITTz3CuPaMlhXE/UmcAJ+6A4ETql9az7LqHmE7cL5DN/REEFwnMMmVgkZE0arejFR5S+tZNsmVsO72oiT3ZDDPckEEcT+X2C5gN4BJrhSc+mInp3eBtaLEepHjoiSLU1/s5HDFUOwxM0TSCktHDOPf5FuGN4xCEg4Um53gIx+7jnQxk1yJXVrPal7Y1QU/G2Fch9uQXEOJ7cKTRPrlFZwelRbRGW8mNjthendXwRJBkFxDcyuPf2xVR5OEA6kb4OJr+f12EV+ScKCgj3ruGSd+Y/PSuXb1P+0ezYXpsz8IpSrB5qVL7YTwUIToGSd+Vv4XxOqFVvso3jluF9sIpguC5Bqaiu9UtS5w2O/kYrMTY1pfBMk1xOal56lsudZwEi3N0yUJBwr7zwphv9MR9FGXtO54QdzPxbf2KlrJFCThQI9i16tmd4FNF0SrmjIS/W0myZXY+Dd5L85YiRE8FCHGbvgK6iqtHWxe4pOc+Ka57YnNTqTbjUTiYroggrifS2XLPwAAeMbfGw77z9Kd1rdIrqHbXz8TOmmEtYgwLvbePy53ZU8q+0oovv71AAAg7Hd+aHa1daLTgBTM6BxYcTdbQV8IAgDgv5MWO62+PBQhZu+GLAt3mMmJzstS042n3Csv2wz6RpA/C30jCLsnjdmxb6/pC0GSXIntJseXzUuBfpnHbnqjXpRkMfmduAcAEPSNj3WbiZHYLmRuP3hmymDQvU8vZ7odWKqn/dTztvqi29vcRVU84tgNnxfHq2XzEh/fyps+Kyroo/jYrA9wbpSiJIuJdOFF8rtSQB1B6AvHsCjJ4lR8Z0Qr9BGd8WaiIe/FVsIUJVlMPS2/SD4utY1VdQvtHs1Frrl+DH/kbGkPkmsovrXHa0WrScKBNpev/XjinxCAurc+t/L4nF5wzkMRFdo1IhclebgoyWf0gnkKSrK1kWCkOljY7ilTgp0einjjoYgDoVQlipI8phcctUIMAAsdQyTX0NK68FwrMIdLbHYiHZ3xXlGHPPTalua2Qgm/d+vtA9Tjco1U1v4Jv6vRG7doR7swt9bIX4Rxsa3GvgVxP7e0IUCn1WHzOIsVWN7tjTCuIE7miULY7+Q2l6+d06sWoiHvsRwsrXUK9SkN1851MisrwrgsFwOgR36IhyIOcMors2TbVQud5GUps7JwRcH9Dp3SE0FwPGXaPZpbXaAvGS2vnlWFM8NqdYG+pE4Qb0evvH3LBUlsFzJGfQmScCDcxGVBrF7QWjZwLrJxLkPJdWxeCiS2Cxmjx+8UywRBcg3dfvAMy8uOhs4/we1KqrvKuMO+tHt0Mho6bzh99faDZ9O3HzzLWDkH0RJBUtkyNxXfqeKk/5CEA+HO6+jk1RrNNLrThi9wYrswPRXfqaayZdOma6sxVZC675Fl59d2GdzBpLD/rIDbtxdK1Z+MrNOjPs/kLNarAYuS7J5f22WW1rOs2U+Ladl4qtSfY11DD0WI4Y+cL8K0kxTEfZRIFy42Cxb0jWOfM5UtO7TW4c4zCfrGIcmVjtkcDXlf0O5RMiWUUepp+ZjNSa4UFErV3ObyNdMm7JjmGE59sZNrdriUJLfmCCuSa8h/J3Okzsedo6d+G2kzuG8nbZ4jSRIOlL07fewiJ7kSe/vrZ8dSlGj3aO7RreumhFFMqbLYvMSrxWhkirPZu9OgFe4mCQcZ+djFd3NOvbkkuPNMmol87OK1BI0wrmD27jSsLvhZdUa/IO5PmpVmakqVRbtHLsRmJ9Ke8feGadfIB42ekn4m4l+HO34ykVxDifTLlh2ARPrlleiMt+N3+OrZRhIOshF9AEHczwml6k/F178e0O6RriaaKpg26bPbcQGcWaxL68JzJNdaBi2RXCOX1gXD78TqdBCNdo9Omh3xtW0IN+gbH1OWPRQhGr2bl9azrJEIcipbZnDmmairILVtvcY2QTzjxOGbFoI+qtCufFGSxfm1XQ4nizHJlYJzKxxvZM5I+CPn4TQGtW29xj5BKMId9FE8SThQ7IbPq1c2sV3ITMV3RjoZW2HzUmAqvjPSLuwRDXkvNjLseSvnELbD9sxFJNd0G99OZju1Qm+sxIgtvcB2QfQwUwyFdqLYzYkVRGuk0UMRYoRx7XnG3xtu9aoLADh8lQf6tfa7VlSgFyN/nXJi30qa5MQzynLTnA43AECEcWm+JLP5JZfRGe+xuSadhFd6xYl9QoqSLBZfyz97xon3WzWyzSEPAIBHt67nWvkGgrifQ/KBrHdMuzmxghhl7J9bR/6v/GfWJkvMoS9ye/VQD8PiDMmeVPpeEJIYlrWW+5W+F+SPxhDUf491wMmA73tBaPco0lruU/ghALA8tcVKaNfoX7SW+5TMEAA8tNuKbgj7z9Jay33Kw2EAqEBdlE/stKRTGqmhXGP5RP5Ii0EeAkBF+fnuEAx+uttuZgAgrXR7043PAHtIg8bvqd+1w5IBAKC69mpB0gBwv9eWDID7oKqdTmnEFp/A4OdYewUPAEfSh7RCJzPQ585in8BD/VofQUuQCgxEsRoe6te40ryhVXCxAgNRrIKHFmIA6Ed7K1Cv3+6bbNCfmftQv6aVVgWMhN8/g4bTYoZFf1LSUL+Gn7UrqNXL0iMEADehT8MsNvAQAL4CjJsZVxCFMaiLMg31LnKgk4P8AeEbnww0YlO4B/gfORWiRT0J/3QAAAAASUVORK5CYII=" parent="1" vertex="1">
          <mxGeometry x="680" y="960" width="100" height="100" as="geometry" />
        </mxCell>
        <mxCell id="UsVPU6x3wFJ9-LT1vOVj-6" value="TEST" style="text;html=1;resizable=0;autosize=1;align=center;verticalAlign=middle;points=[];fillColor=none;strokeColor=none;rounded=0;" parent="1" vertex="1">
          <mxGeometry x="200" y="90" width="50" height="20" as="geometry" />
        </mxCell>
        <mxCell id="40-lR1-dYXCGKueIvyVc-1" value="" style="shape=image;verticalLabelPosition=bottom;verticalAlign=top;imageAspect=0;aspect=fixed;image=data:image/png,iVBORw0KGgoAAAANSUhEUgAAAGQAAABkCAYAAABw4pVUAAAIQ0lEQVR4nO2dz28aZx6HP3aDVlPJDB13a0uMEFGNHB8GkYtZaacyHLP2IapvJP8APjibm32KcrL3VMcHc8jVy81RDiY9eqylUvEhmWUOXkSiUDRoTdqwDNFmWpHKexhIqAs2884ArzfvI40imXl/6H14533f7/tOGDs9PQUBPgA3ASwAiLQuBqC2rkMAjwHU7WYwZlNIDMAdWDIYF/MYwAMASr8J+hUSA3Cv9S/DPgqA++hDTD9CvgHwV6c1YgAAtgDcPe+G84T4AByAjQ9uowKIo8f4Mt4jkQ9MxqCIwGpbX7cPuwnxgckYNBH0kNLtkfUMTMawUAFc7/zD2R7yDZiMYRKB1ebv6ewhMVjdiDF84mhNiTt7yL2RVIUBdLR9W0gMbNE3SmKt672QO6OqCeM9dwBrDPEB+M9o68Jo8dk4WKCQJm6OwwqhM+hgYRxs3UETkbFTwh0qxmDoFVxkjAgmhDKYEMpgQiiDCaEMJoQymBDKuOJ2hpreKGiVNz+WX799x3OeMUn08nJIiLhdzijIFmuqpjcMw2yeBiY/vSL5J/4oid5ZN8twbWG4+aSopHOVmXLNFM9+xnMeYzH8hbaxPCfxnId3o7xhYZhNY33vWMvkX0mG2fxd3QMCpyei/udrfwnF3CjPsRDDbBpL20cnmt648JvCcx5jf3X+xO1v1aDQ9EZhaftoupuIs0iit7C/Oj/t9AvnaAyxI6N1P7+0fTSt6Y2Ck3KHgR0Zrftnl7aPTgyzaTgp15GQWw+fvuxXRpu2FKcVHyStL1rfMtpoemP21sOnL52UTSwkW6yp2WItQpLWMJt86qD0jLTsQZM6KD2zK6NNtliLZIs1lbRsYiEppfQLaVor/Q/XL75rNDitm5O2cdJDrpGmBaxeQuNYoumNAmnvaOOkbYiFOK20lcc702kebuNGnZy0DVupUwYTQhnEQiTR6/j5L4kTV53m4TZu1MlJ2xALWZS++DdpWgCQQ4JKYxiF5zy8HBJUJ3k4aRtiIcl48DrPeYgXd2s3QqRJB46TuvGcx0jGg8TTZmIhPOfhN5bnNJK0iag/S3MEWA4JkUTUnyVJu7E8pznp+Y4G9UTUL9utuCR6CxvLc5KTcofBxvKcZHcsSET92UTULzsp15XweyZfza3satcumn8n48HDja/nLtVJyfVHx4epg9K5deY5j7GxPKc5lQG4uB9imE0j/X1FzWhVXtPfXG3LkUOCKoleIxkLfhkQuN/tlVwGyjVTTymlF5re4NvxO57zGJI48XJRmjISf/JH3JqgsJOLlOHaFq5hNg1Nf9Mz9ByY5D6/zD2k/Nr8qdfnkjhxlZoekslXc5vfPvf1sy8SEDg9GQu+SMaDl2IcSR2UDlNK6ctu29JnkURvYe3GTH0xPBV1UiaxEMNsGiu72r8y+artCkiit7BzSwKtW7ma3iis/F2D3c03AFgMT+V2bkvXSHsMsZCl7RzxBhXg7szETdK5SnZ977jrgYZ+kUOCur8ajZCkJVqHbD4pKk5kAFaIemU3L6dzFaIF2CBI5yrZld287MJ+SGTzSVEhSWtbiGE2DTd3+1Z28zING1Wa3iis7OZd660p5YfrJOcGbAvJ5F9pbmxOdbK0fTRdrpm6m3naoVwz9aXto2k38zTMJp/Jv7IdWrItpPz67Tu7aS7CMJv8rYdP/zuKkyiG2TRaZbseeSZpK2o2qDS9Mbu+d0wUrHTC+t6xRjKbGhTUCAGAdK4ir+zmhzbIr+zms+lchapZHlVCgOFJoVEGQKEQwJLy1d++KwxioLdOJeZUGmUAlAoBrDHlq83vJlIHpUO38kznKtnwvUM4XUMNEtffD3ETw2zy64+OF1JKSU/Ggi9IwtyG2TQy+Vfa5pNisFwzqewVnVAtpE25Zorrj47F9UfHWAxP5eQZ4efzXgRqvzSUyVc92WLtmmE2qRfR5lII6SSTr0Yz+aoVLwpZcc10rpLN5Ksew2z+ofU4mm1dlw4qhPCcx7C7MNu5Hf4coHe2RAoVg/r+6vxJQOD6nlElov5sQODETL6ac0OG9WZXVHWajxtQIUQSvbP/WPvzRDIe7GtGJfm9vwJA9nntZ6dlL4ancvn7C6DlWBIVjyygdc7r67mFRWlK3fy2eO7UlP/U8wkAGG+bn5CWFxA4fed2+Cc5JDja4XMbaoS0kUNCZD8URbZYU1NK6ZduO5JapfEr4IccmkQ6V7GVvyR6C8lY8MfWxhh1e/zUCWkjh4SIHBJQrpl65p/VFxmt+v4ITvr7SmTtxoyRiPrllFIqXBQclERvQQ4JJ4l5/3Rr25jaGRi1QtoEBE5MxoNiMh4E8OHl/fJrc1oSPfz+6vz0+t5xtv0euSR6Czx3xZRnhLokejlJ9PoDAke1hE6oF3KWds9pw3Mefud2uHOmdSkavhdUzLIYH2BCKIMJoQwmhDKYEMpgQijD9rRXDk361mz8UGKfxFzOj4i1GzOKm/nJoUmf3TTs/RDKYI8symBCKIMJoQwmhDKYEMpgQiiDCaGMcVi/x8qgA5UJoQt1HIBrh5kZjjlkPyxJF5+NA6gDeDzaejBgOai3Z1kPRlgRhsUD4MO0V4H7IXVG/yjo8nvq90dREwaAjrbvFKIA2Bp2TRjYQsfTaazL/tQzsN/HHRYqgN/8NyXdQidxsMXiMFBhtfVv6CakDiZl0Kiw2rh+9oNewcU6mJRBoaKHDOD8aG8d1vNty+UKfcxswWrTeq8b+gm/34VlVHGjRh8pCqw2vHvRjd1mWecRA3AHwE2CSn2MPIa1Alf6TWBXSBsfLCkLsKbIEZJM/g9RW9chWrEpuxn8D0W9gG4fNE5XAAAAAElFTkSuQmCC" vertex="1" parent="1">
          <mxGeometry x="210" y="230" width="100" height="100" as="geometry" />
        </mxCell>
      </root>
    </mxGraphModel>
  </diagram>
</mxfile>
